<?xml version="1.0" encoding="UTF-8" standalone="no"?>
<!-- Generator: Adobe Illustrator 21.0.2, SVG Export Plug-In . SVG Version: 6.00 Build 0)  -->

<svg
   xmlns:dc="http://purl.org/dc/elements/1.1/"
   xmlns:cc="http://creativecommons.org/ns#"
   xmlns:rdf="http://www.w3.org/1999/02/22-rdf-syntax-ns#"
   xmlns:svg="http://www.w3.org/2000/svg"
   xmlns="http://www.w3.org/2000/svg"
   xmlns:sodipodi="http://sodipodi.sourceforge.net/DTD/sodipodi-0.dtd"
   xmlns:inkscape="http://www.inkscape.org/namespaces/inkscape"
   version="1.1"
   id="Layer_1"
   x="0px"
   y="0px"
   viewBox="0 0 92.2 31"
   style="enable-background:new 0 0 92.2 31;"
   xml:space="preserve"
   inkscape:version="0.91 r13725"
   sodipodi:docname="logo-dark.svg"><metadata
     id="metadata4325"><rdf:RDF><cc:Work
         rdf:about=""><dc:format>image/svg+xml</dc:format><dc:type
           rdf:resource="http://purl.org/dc/dcmitype/StillImage" /><dc:title></dc:title></cc:Work></rdf:RDF></metadata><defs
     id="defs4323" /><sodipodi:namedview
     pagecolor="#ffffff"
     bordercolor="#666666"
     borderopacity="1"
     objecttolerance="10"
     gridtolerance="10"
     guidetolerance="10"
     inkscape:pageopacity="0"
     inkscape:pageshadow="2"
     inkscape:window-width="1366"
     inkscape:window-height="705"
     id="namedview4321"
     showgrid="false"
     inkscape:zoom="6.6415889"
     inkscape:cx="34.058191"
     inkscape:cy="12.378399"
     inkscape:window-x="0"
     inkscape:window-y="30"
     inkscape:window-maximized="1"
     inkscape:current-layer="Layer_1" /><style
     type="text/css"
     id="style4293">
	.st0{fill:#FFFFFF;}
</style><g
     id="g4295"
     style="fill:#73879c;fill-opacity:1"><g
       id="g4297"
       style="fill:#73879c;fill-opacity:1"><path
         class="st0"
         d="M6.2,13.9h4.6v6.7c0,3.4-1.7,5.3-4.9,5.3s-4.9-1.9-4.9-5.3v-11c0-3.4,1.7-5.3,4.9-5.3s4.9,1.9,4.9,5.3v2H7.7    V9.4C7.7,7.9,7,7.3,6,7.3S4.2,7.9,4.2,9.4v11.4c0,1.5,0.7,2,1.7,2s1.7-0.5,1.7-2v-3.9H6.2V13.9z"
         id="path4299"
         style="fill:#73879c;fill-opacity:1" /><path
         class="st0"
         d="M12.7,9.6c0-3.4,1.8-5.3,5-5.3s5,1.9,5,5.3v11c0,3.4-1.8,5.3-5,5.3s-5-1.9-5-5.3V9.6z M16,20.8    c0,1.5,0.7,2.1,1.7,2.1s1.7-0.6,1.7-2.1V9.4c0-1.5-0.7-2.1-1.7-2.1S16,7.9,16,9.4V20.8z"
         id="path4301"
         style="fill:#73879c;fill-opacity:1" /><path
         class="st0"
         d="M34.7,9.7v2.7c0,3.4-1.6,5.2-4.9,5.2h-1.6v7.9h-3.3V4.5h4.9C33.1,4.5,34.7,6.4,34.7,9.7z M28.2,7.5v7.1h1.6    c1.1,0,1.6-0.5,1.6-2V9.5c0-1.5-0.6-2-1.6-2H28.2z"
         id="path4303"
         style="fill:#73879c;fill-opacity:1" /><path
         class="st0"
         d="M46.6,25.6h-3.3l-0.6-3.8h-4.1L38,25.6h-3l3.4-21.1h4.8L46.6,25.6z M39,18.9h3.2L40.6,8.3h-0.1L39,18.9z"
         id="path4305"
         style="fill:#73879c;fill-opacity:1" /><path
         class="st0"
         d="M49.7,18.6L45.6,4.5H49l2.5,9.6h0.1l2.5-9.6h3.2l-4.2,14.1v7h-3.3V18.6z"
         id="path4307"
         style="fill:#73879c;fill-opacity:1" /></g><g
       id="g4309"
       style="fill:#73879c;fill-opacity:1"><g
         id="g4311"
         style="fill:#73879c;fill-opacity:1"><path
           class="st0"
           d="M71.9,20.1l5.3,1.6c0,0,0,0.1,0,0.1c-0.1,0.4-0.4,0.6-0.9,0.7c-1.7,0.3-4.6,0.1-4.7,0.1     c-0.4,0-0.8,0.3-0.9,0.8c0,0.4,0.3,0.8,0.8,0.9c0.1,0,3.1,0.2,5-0.1c1.9-0.3,2.5-2,2.4-3.1c0-0.3-0.3-0.6-0.6-0.7l-6-1.8     c-2.9-0.9-6.2,0.8-6.3,0.8c0,0,0,0,0,0l-5.9,3.6c-0.4,0.2-0.5,0.7-0.3,1.1c0.2,0.3,0.4,0.4,0.7,0.4c0.1,0,0.3,0,0.4-0.1l5.9-3.6     C67,20.7,69.6,19.4,71.9,20.1z"
           id="path4313"
           style="fill:#73879c;fill-opacity:1" /><path
           class="st0"
           d="M92.1,18.7c-0.5-0.9-1.9-2.2-4.1-1.2c-2.1,0.9-6.5,3-6.5,3.1c-0.4,0.2-0.6,0.7-0.4,1.1     c0.2,0.4,0.7,0.6,1.1,0.4c0,0,4.4-2.1,6.5-3c0.6-0.3,1.1-0.3,1.5,0c0,0,0,0,0,0l-11,8.1c-0.8,0.6-1.8,0.8-2.7,0.7l-9.9-1.6     c-0.2,0-0.5,0-0.7,0.2l-2.5,2.1c-0.3,0.3-0.4,0.8-0.1,1.1c0.2,0.2,0.4,0.3,0.6,0.3c0.2,0,0.4-0.1,0.5-0.2l2.2-1.8l9.5,1.5     c1.4,0.2,2.8-0.1,4-1l11.8-8.6C92.2,19.5,92.3,19.1,92.1,18.7z"
           id="path4315"
           style="fill:#73879c;fill-opacity:1" /><path
           class="st0"
           d="M77.1,17.8c1.3,0,2.5-0.5,3.4-1.4c1.8-1.8,1.8-4.8,0-6.7c-0.9-0.9-2.1-1.4-3.4-1.4c-1.3,0-2.5,0.5-3.4,1.4     c-1.8,1.8-1.8,4.8,0,6.7C74.6,17.3,75.8,17.8,77.1,17.8z M74.9,10.9c0.6-0.6,1.4-0.9,2.2-0.9c0.8,0,1.6,0.3,2.2,0.9     c1.2,1.2,1.2,3.2,0,4.4c-0.6,0.6-1.4,0.9-2.2,0.9c-0.8,0-1.6-0.3-2.2-0.9C73.7,14,73.7,12.1,74.9,10.9z"
           id="path4317"
           style="fill:#73879c;fill-opacity:1" /><path
           class="st0"
           d="M82.7,8.5c1,0,1.9-0.4,2.6-1.1c1.4-1.4,1.4-3.8,0-5.2c-0.7-0.7-1.6-1.1-2.6-1.1c-1,0-1.9,0.4-2.6,1.1     c-1.4,1.4-1.4,3.8,0,5.2C80.7,8.2,81.7,8.5,82.7,8.5z M81.2,3.4c0.4-0.4,0.9-0.6,1.5-0.6c0.6,0,1.1,0.2,1.5,0.6     c0.8,0.8,0.8,2.1,0,2.9c-0.4,0.4-0.9,0.6-1.5,0.6c-0.6,0-1.1-0.2-1.5-0.6C80.4,5.5,80.4,4.2,81.2,3.4z"
           id="path4319"
           style="fill:#73879c;fill-opacity:1" /></g></g></g></svg>